<svg width="217" height="157" viewBox="0 0 217 157" fill="none" xmlns="http://www.w3.org/2000/svg">
<mask id="mask0" mask-type="alpha" maskUnits="userSpaceOnUse" x="0" y="0" width="217" height="157">
<rect x="217" width="157" height="217" transform="rotate(90 217 0)" fill="#C4C4C4"/>
</mask>
<g mask="url(#mask0)">
<ellipse cx="106.964" cy="105.921" rx="33.4934" ry="35.3776" fill="#79EEC3"/>
<path fill-rule="evenodd" clip-rule="evenodd" d="M206.928 126.137H166.392C157.816 150.557 134.448 168.076 106.964 168.076C79.4808 168.076 56.1123 150.557 47.5365 126.137H7.00049C16.5887 172.299 57.701 207 106.964 207C156.228 207 197.34 172.299 206.928 126.137ZM206.928 84.8634H166.392C157.816 60.4434 134.448 42.9245 106.964 42.9245C79.4808 42.9245 56.1123 60.4434 47.5365 84.8634H7.00049C16.5887 38.7019 57.701 4.00031 106.964 4.00031C156.228 4.00031 197.34 38.7019 206.928 84.8634Z" fill="#79EEC3"/>
</g>
</svg>
