<svg width="157" height="217" viewBox="0 0 157 217" fill="none" xmlns="http://www.w3.org/2000/svg">
<mask id="mask0" mask-type="alpha" maskUnits="userSpaceOnUse" x="0" y="0" width="157" height="217">
<rect width="157" height="217" fill="#C4C4C4"/>
</mask>
<g mask="url(#mask0)">
<ellipse cx="105.921" cy="110.036" rx="33.4934" ry="35.3776" transform="rotate(-90 105.921 110.036)" fill="#79EEC3"/>
<path fill-rule="evenodd" clip-rule="evenodd" d="M126.137 10.072L126.137 50.6081C150.557 59.1838 168.076 82.5524 168.076 110.036C168.076 137.519 150.557 160.888 126.137 169.464L126.137 210C172.299 200.411 207 159.299 207 110.036C207 60.7725 172.299 19.6602 126.137 10.072ZM84.8633 10.072L84.8633 50.6081C60.4433 59.1838 42.9245 82.5524 42.9245 110.036C42.9245 137.519 60.4433 160.888 84.8633 169.464L84.8633 210C38.7018 200.411 4.00024 159.299 4.00024 110.036C4.00024 60.7726 38.7018 19.6602 84.8633 10.072Z" fill="#79EEC3"/>
</g>
</svg>
