<svg width="139" height="210" viewBox="0 0 139 210" fill="none" xmlns="http://www.w3.org/2000/svg">
<mask id="mask0" mask-type="alpha" maskUnits="userSpaceOnUse" x="0" y="0" width="139" height="210">
<rect width="139" height="210" fill="#C4C4C4"/>
</mask>
<g mask="url(#mask0)">
<ellipse cx="99.9638" cy="105.921" rx="33.4934" ry="35.3776" fill="#F5F6F8"/>
<path fill-rule="evenodd" clip-rule="evenodd" d="M199.928 126.137H159.392C150.816 150.557 127.447 168.076 99.9638 168.076C72.4803 168.076 49.1118 150.557 40.536 126.137H0C9.58817 172.298 50.7005 207 99.9638 207C149.227 207 190.339 172.298 199.928 126.137ZM199.928 84.8631H159.392C150.816 60.4431 127.447 42.9242 99.9638 42.9242C72.4803 42.9242 49.1118 60.4431 40.536 84.8631H1.35572e-06C9.58817 38.7016 50.7005 4 99.9638 4C149.227 4 190.339 38.7016 199.928 84.8631Z" fill="#F5F6F8"/>
</g>
</svg>
